<svg xmlns="http://www.w3.org/2000/svg" version="1.1" xmlns:xlink="http://www.w3.org/1999/xlink" xmlns:svgjs="http://svgjs.dev/svgjs" width="1500" height="1500" viewBox="0 0 1500 1500"><rect width="1500" height="1500" fill="#cf5260"></rect><g transform="matrix(0.3455425017277125,0,0,0.3455425017277125,491.6444113803043,250.40485829959505)"><svg viewBox="0 0 128 247" data-background-color="#cf5260" preserveAspectRatio="xMidYMid meet" height="2894" width="1500" xmlns="http://www.w3.org/2000/svg" xmlns:xlink="http://www.w3.org/1999/xlink"><g id="tight-bounds" transform="matrix(1,0,0,1,-0.197881730952588,-0.09999999999999432)"><svg viewBox="0 0 128.39576346190515 247.2" height="247.2" width="128.39576346190515"><g><svg viewBox="0 0 192.58876615384617 370.7906064" height="247.2" width="128.39576346190515"><g><svg viewBox="0 0 192.58876615384617 370.7906064" height="370.7906064" width="192.58876615384617"><g id="textblocktransform"><svg viewBox="0 0 192.58876615384617 370.7906064" height="370.7906064" width="192.58876615384617" id="textblock"><g><rect width="192.58876615384617" height="247.2" fill="none" stroke-width="9.018103199999999" stroke="#f0f0f0" data-fill-palette-color="none" data-stroke-palette-color="tertiary"></rect><rect width="192.58876615384617" height="123.5906064" y="247.2" fill="#f0f0f0" data-fill-palette-color="tertiary"></rect></g><g><svg viewBox="0 0 192.58876615384617 247.2" height="247.2" width="192.58876615384617"><g transform="matrix(1,0,0,1,23.607599999999998,23.607599999999998)"><svg width="145.37356615384618" viewBox="2.35 -25.75 18.9 26" height="199.9848" data-palette-color="#f0f0f0"><path d="M11.4-3.05L11.4-3.05Q14.1-3.05 15.7-4.58 17.3-6.1 17.3-8.45L17.3-8.45 17.3-11.7 12.9-11.7Q9.7-11.7 8.1-10.45 6.5-9.2 6.5-7.3 6.5-5.4 7.75-4.23 9-3.05 11.4-3.05ZM17.35 0L17.35-3Q15.4 0.25 10.25 0.25L10.25 0.25Q6.7 0.25 4.53-1.85 2.35-3.95 2.35-7.15L2.35-7.15Q2.35-10.8 5.13-12.83 7.9-14.85 12.7-14.85L12.7-14.85 17.3-14.85 17.3-16.15Q17.3-19.15 15.95-20.68 14.6-22.2 11.4-22.2L11.4-22.2Q7.35-22.2 4.2-20.05L4.2-20.05 4.2-24Q7.05-25.75 11.7-25.75L11.7-25.75Q21.25-25.75 21.25-16.05L21.25-16.05 21.25 0 17.35 0Z" opacity="1" transform="matrix(1,0,0,1,0,0)" fill="#f0f0f0" class="wordmark-text-0" data-fill-palette-color="primary" id="text-0"></path></svg></g></svg></g></svg></g></svg></g></svg></g><defs></defs></svg><rect width="128.39576346190515" height="247.2" fill="none" stroke="none" visibility="hidden"></rect></g></svg></g></svg>